<svg width="1440" height="752" viewBox="0 0 1440 752" fill="none" xmlns="http://www.w3.org/2000/svg">
<rect width="1440" height="752" fill="#3623D0"/>
<path d="M960.101 224.437C987.212 84.994 1084 16.7111 1129 0H0V752H672.863C960.101 673.521 926.212 398.74 960.101 224.437Z" fill="#4954DE"/>
<path d="M499.217 137.55C503.409 78.3504 536.819 21.1835 553 0H0V740C313.597 683.487 396.616 545.937 433.85 491.769C471.084 437.602 493.977 211.55 499.217 137.55Z" fill="#5587EA"/>
<path d="M0 368C258.955 268.163 338.565 81.0678 346 0H0V368Z" fill="#4774E0"/>
<path d="M0 212C139.207 154.485 182.003 46.7021 186 0H0V212Z" fill="#8094EF"/>
</svg>
